<?xml version="1.0" standalone="no"?><!DOCTYPE svg PUBLIC "-//W3C//DTD SVG 1.1//EN" "http://www.w3.org/Graphics/SVG/1.1/DTD/svg11.dtd"><svg t="1686489939371" class="icon" viewBox="0 0 1024 1024" version="1.1" xmlns="http://www.w3.org/2000/svg" p-id="5907" xmlns:xlink="http://www.w3.org/1999/xlink" width="200" height="200"><path d="M82.432 308.224l403.584 184.832a55.488 55.488 0 0 0 49.92 0l403.648-184.832a27.712 27.712 0 0 0 0-49.984l-403.584-184.32a55.488 55.488 0 0 0-49.92 0l-403.648 184.32a27.776 27.776 0 0 0 0 49.92z m411.904 644.48c5.312 2.176 10.944 3.264 16.64 3.328 5.76 0 11.392-1.152 16.64-3.328l405.824-171.52a41.664 41.664 0 0 0 21.696-55.552 42.24 42.24 0 0 0-55.552-22.208L554.88 850.56a114.368 114.368 0 0 1-87.68 0l-341.44-148.224a42.112 42.112 0 0 0-55.488 22.208 41.6 41.6 0 0 0 21.632 55.488l402.432 172.672z m0-228.608a44.416 44.416 0 0 0 33.28 0l405.312-172.672a41.664 41.664 0 1 0-33.28-76.032L554.88 623.04a114.368 114.368 0 0 1-87.68 0L125.12 475.392a41.6 41.6 0 1 0-33.28 76.032l402.432 172.672z" p-id="5908"></path></svg>